<mxfile host="app.diagrams.net" modified="2023-10-31T19:10:11.547Z" agent="Mozilla/5.0 (X11; Linux x86_64) AppleWebKit/537.36 (KHTML, like Gecko) Chrome/118.0.0.0 Safari/537.36" etag="9lVOvkZCM6vzaUdgpfT9" version="22.0.8" type="device">
  <diagram name="Page-1" id="-ulH3O3-4FexaumD8vs6">
    <mxGraphModel dx="977" dy="542" grid="1" gridSize="10" guides="1" tooltips="1" connect="1" arrows="1" fold="1" page="1" pageScale="1" pageWidth="827" pageHeight="1169" math="0" shadow="0">
      <root>
        <mxCell id="0" />
        <mxCell id="1" parent="0" />
        <mxCell id="7DDmQKchOeRSoel_VwaO-1" value="arg_3" style="rounded=0;whiteSpace=wrap;html=1;fillColor=#ffe6cc;strokeColor=#d79b00;fontFamily=Courier New;fontStyle=1" vertex="1" parent="1">
          <mxGeometry x="320" y="440" width="160" height="40" as="geometry" />
        </mxCell>
        <mxCell id="7DDmQKchOeRSoel_VwaO-2" value="arg_2" style="rounded=0;whiteSpace=wrap;html=1;fillColor=#ffe6cc;strokeColor=#d79b00;fontFamily=Courier New;fontStyle=1" vertex="1" parent="1">
          <mxGeometry x="320" y="400" width="160" height="40" as="geometry" />
        </mxCell>
        <mxCell id="7DDmQKchOeRSoel_VwaO-3" value="&lt;font face=&quot;Courier New&quot;&gt;arg_1&lt;/font&gt;" style="rounded=0;whiteSpace=wrap;html=1;fillColor=#ffe6cc;strokeColor=#d79b00;fontStyle=1" vertex="1" parent="1">
          <mxGeometry x="320" y="360" width="160" height="40" as="geometry" />
        </mxCell>
        <mxCell id="7DDmQKchOeRSoel_VwaO-4" value="Adresse de retour" style="rounded=0;whiteSpace=wrap;html=1;fillColor=#fff2cc;strokeColor=#d6b656;fontStyle=1" vertex="1" parent="1">
          <mxGeometry x="320" y="320" width="160" height="40" as="geometry" />
        </mxCell>
        <mxCell id="7DDmQKchOeRSoel_VwaO-5" value="ancien &lt;b&gt;&lt;font color=&quot;#ff0000&quot;&gt;EBP&lt;/font&gt;&lt;/b&gt;" style="rounded=0;whiteSpace=wrap;html=1;fillColor=#f8cecc;strokeColor=#b85450;" vertex="1" parent="1">
          <mxGeometry x="320" y="280" width="160" height="40" as="geometry" />
        </mxCell>
        <mxCell id="7DDmQKchOeRSoel_VwaO-6" value="local_var_1" style="rounded=0;whiteSpace=wrap;html=1;fillColor=#dae8fc;strokeColor=#6c8ebf;fontFamily=Courier New;fontStyle=1" vertex="1" parent="1">
          <mxGeometry x="320" y="240" width="160" height="40" as="geometry" />
        </mxCell>
        <mxCell id="7DDmQKchOeRSoel_VwaO-7" value="local_var_2" style="rounded=0;whiteSpace=wrap;html=1;fillColor=#dae8fc;strokeColor=#6c8ebf;fontFamily=Courier New;fontStyle=1" vertex="1" parent="1">
          <mxGeometry x="320" y="200" width="160" height="40" as="geometry" />
        </mxCell>
        <mxCell id="7DDmQKchOeRSoel_VwaO-8" value="" style="rounded=0;whiteSpace=wrap;html=1;" vertex="1" parent="1">
          <mxGeometry x="320" y="160" width="160" height="40" as="geometry" />
        </mxCell>
        <mxCell id="7DDmQKchOeRSoel_VwaO-9" value="&lt;b&gt;&lt;font face=&quot;Courier New&quot;&gt;0x70000104&lt;/font&gt;&lt;/b&gt;" style="text;html=1;strokeColor=none;fillColor=none;align=center;verticalAlign=middle;whiteSpace=wrap;rounded=0;" vertex="1" parent="1">
          <mxGeometry x="200" y="445" width="90" height="30" as="geometry" />
        </mxCell>
        <mxCell id="7DDmQKchOeRSoel_VwaO-10" value="&lt;b&gt;&lt;font face=&quot;Courier New&quot;&gt;0x70000100&lt;/font&gt;&lt;/b&gt;" style="text;html=1;strokeColor=none;fillColor=none;align=center;verticalAlign=middle;whiteSpace=wrap;rounded=0;" vertex="1" parent="1">
          <mxGeometry x="200" y="405" width="90" height="30" as="geometry" />
        </mxCell>
        <mxCell id="7DDmQKchOeRSoel_VwaO-11" value="&lt;b&gt;&lt;font face=&quot;Courier New&quot;&gt;0x700000FC&lt;/font&gt;&lt;/b&gt;" style="text;html=1;strokeColor=none;fillColor=none;align=center;verticalAlign=middle;whiteSpace=wrap;rounded=0;" vertex="1" parent="1">
          <mxGeometry x="200" y="365" width="90" height="30" as="geometry" />
        </mxCell>
        <mxCell id="7DDmQKchOeRSoel_VwaO-12" value="&lt;b&gt;&lt;font face=&quot;Courier New&quot;&gt;0x700000F8&lt;/font&gt;&lt;/b&gt;" style="text;html=1;strokeColor=none;fillColor=none;align=center;verticalAlign=middle;whiteSpace=wrap;rounded=0;" vertex="1" parent="1">
          <mxGeometry x="200" y="325" width="90" height="30" as="geometry" />
        </mxCell>
        <mxCell id="7DDmQKchOeRSoel_VwaO-13" value="&lt;b&gt;&lt;font face=&quot;Courier New&quot;&gt;0x700000F4&lt;/font&gt;&lt;/b&gt;" style="text;html=1;strokeColor=none;fillColor=none;align=center;verticalAlign=middle;whiteSpace=wrap;rounded=0;" vertex="1" parent="1">
          <mxGeometry x="200" y="285" width="90" height="30" as="geometry" />
        </mxCell>
        <mxCell id="7DDmQKchOeRSoel_VwaO-14" value="&lt;b&gt;&lt;font face=&quot;Courier New&quot;&gt;0x700000F0&lt;/font&gt;&lt;/b&gt;" style="text;html=1;strokeColor=none;fillColor=none;align=center;verticalAlign=middle;whiteSpace=wrap;rounded=0;" vertex="1" parent="1">
          <mxGeometry x="200" y="245" width="90" height="30" as="geometry" />
        </mxCell>
        <mxCell id="7DDmQKchOeRSoel_VwaO-15" value="&lt;b&gt;&lt;font face=&quot;Courier New&quot;&gt;0x700000EC&lt;/font&gt;&lt;/b&gt;" style="text;html=1;strokeColor=none;fillColor=none;align=center;verticalAlign=middle;whiteSpace=wrap;rounded=0;" vertex="1" parent="1">
          <mxGeometry x="200" y="205" width="90" height="30" as="geometry" />
        </mxCell>
        <mxCell id="7DDmQKchOeRSoel_VwaO-16" value="&lt;b&gt;&lt;font face=&quot;Courier New&quot;&gt;0x700000E8&lt;/font&gt;&lt;/b&gt;" style="text;html=1;strokeColor=none;fillColor=none;align=center;verticalAlign=middle;whiteSpace=wrap;rounded=0;" vertex="1" parent="1">
          <mxGeometry x="200" y="165" width="90" height="30" as="geometry" />
        </mxCell>
        <mxCell id="7DDmQKchOeRSoel_VwaO-17" value="" style="rounded=0;whiteSpace=wrap;html=1;" vertex="1" parent="1">
          <mxGeometry x="320" y="120" width="160" height="40" as="geometry" />
        </mxCell>
        <mxCell id="7DDmQKchOeRSoel_VwaO-18" value="&lt;b&gt;&lt;font face=&quot;Courier New&quot;&gt;0x700000E4&lt;/font&gt;&lt;/b&gt;" style="text;html=1;strokeColor=none;fillColor=none;align=center;verticalAlign=middle;whiteSpace=wrap;rounded=0;" vertex="1" parent="1">
          <mxGeometry x="200" y="125" width="90" height="30" as="geometry" />
        </mxCell>
        <mxCell id="7DDmQKchOeRSoel_VwaO-19" value="&lt;b&gt;&lt;font color=&quot;#009900&quot;&gt;ESP&lt;/font&gt;&lt;/b&gt;" style="text;html=1;strokeColor=none;fillColor=none;align=center;verticalAlign=middle;whiteSpace=wrap;rounded=0;" vertex="1" parent="1">
          <mxGeometry x="90" y="125" width="60" height="30" as="geometry" />
        </mxCell>
        <mxCell id="7DDmQKchOeRSoel_VwaO-20" value="&lt;b&gt;&lt;font color=&quot;#ff0000&quot;&gt;EBP&lt;/font&gt;&lt;/b&gt;" style="text;html=1;strokeColor=none;fillColor=none;align=center;verticalAlign=middle;whiteSpace=wrap;rounded=0;" vertex="1" parent="1">
          <mxGeometry x="90" y="285" width="60" height="30" as="geometry" />
        </mxCell>
        <mxCell id="7DDmQKchOeRSoel_VwaO-21" value="" style="endArrow=classic;html=1;rounded=0;entryX=0;entryY=0.5;entryDx=0;entryDy=0;exitX=0.833;exitY=0.5;exitDx=0;exitDy=0;exitPerimeter=0;" edge="1" parent="1" source="7DDmQKchOeRSoel_VwaO-20" target="7DDmQKchOeRSoel_VwaO-13">
          <mxGeometry width="50" height="50" relative="1" as="geometry">
            <mxPoint x="160" y="320" as="sourcePoint" />
            <mxPoint x="420" y="260" as="targetPoint" />
          </mxGeometry>
        </mxCell>
        <mxCell id="7DDmQKchOeRSoel_VwaO-22" value="" style="endArrow=classic;html=1;rounded=0;entryX=0;entryY=0.5;entryDx=0;entryDy=0;exitX=0.833;exitY=0.5;exitDx=0;exitDy=0;exitPerimeter=0;" edge="1" parent="1">
          <mxGeometry width="50" height="50" relative="1" as="geometry">
            <mxPoint x="140" y="139.71" as="sourcePoint" />
            <mxPoint x="200" y="139.71" as="targetPoint" />
          </mxGeometry>
        </mxCell>
        <mxCell id="7DDmQKchOeRSoel_VwaO-23" value="&lt;b&gt;&lt;font color=&quot;#ff0000&quot;&gt;EBP &lt;/font&gt;+ 8&lt;/b&gt;" style="text;html=1;strokeColor=none;fillColor=none;align=center;verticalAlign=middle;whiteSpace=wrap;rounded=0;" vertex="1" parent="1">
          <mxGeometry x="520" y="365" width="60" height="30" as="geometry" />
        </mxCell>
        <mxCell id="7DDmQKchOeRSoel_VwaO-24" value="&lt;b&gt;&lt;font color=&quot;#ff0000&quot;&gt;EBP &lt;/font&gt;+ 0xc&lt;/b&gt;" style="text;html=1;strokeColor=none;fillColor=none;align=center;verticalAlign=middle;whiteSpace=wrap;rounded=0;" vertex="1" parent="1">
          <mxGeometry x="500" y="405" width="110" height="30" as="geometry" />
        </mxCell>
        <mxCell id="7DDmQKchOeRSoel_VwaO-25" value="&lt;b&gt;&lt;font color=&quot;#ff0000&quot;&gt;EBP &lt;/font&gt;+ 0x10&lt;/b&gt;" style="text;html=1;strokeColor=none;fillColor=none;align=center;verticalAlign=middle;whiteSpace=wrap;rounded=0;" vertex="1" parent="1">
          <mxGeometry x="520" y="450" width="80" height="30" as="geometry" />
        </mxCell>
        <mxCell id="7DDmQKchOeRSoel_VwaO-26" value="&lt;b&gt;&lt;font color=&quot;#ff0000&quot;&gt;EBP &lt;/font&gt;- 4&lt;/b&gt;" style="text;html=1;strokeColor=none;fillColor=none;align=center;verticalAlign=middle;whiteSpace=wrap;rounded=0;" vertex="1" parent="1">
          <mxGeometry x="520" y="245" width="60" height="30" as="geometry" />
        </mxCell>
        <mxCell id="7DDmQKchOeRSoel_VwaO-27" value="&lt;b&gt;&lt;font color=&quot;#ff0000&quot;&gt;EBP &lt;/font&gt;- 8&lt;/b&gt;" style="text;html=1;strokeColor=none;fillColor=none;align=center;verticalAlign=middle;whiteSpace=wrap;rounded=0;" vertex="1" parent="1">
          <mxGeometry x="520" y="205" width="60" height="30" as="geometry" />
        </mxCell>
        <mxCell id="7DDmQKchOeRSoel_VwaO-28" value="" style="endArrow=classic;html=1;rounded=0;exitX=0;exitY=0.5;exitDx=0;exitDy=0;" edge="1" parent="1" source="7DDmQKchOeRSoel_VwaO-27">
          <mxGeometry width="50" height="50" relative="1" as="geometry">
            <mxPoint x="560" y="299.71" as="sourcePoint" />
            <mxPoint x="490" y="220" as="targetPoint" />
          </mxGeometry>
        </mxCell>
        <mxCell id="7DDmQKchOeRSoel_VwaO-29" value="" style="endArrow=classic;html=1;rounded=0;exitX=0;exitY=0.5;exitDx=0;exitDy=0;" edge="1" parent="1">
          <mxGeometry width="50" height="50" relative="1" as="geometry">
            <mxPoint x="520" y="259.71" as="sourcePoint" />
            <mxPoint x="490" y="259.71" as="targetPoint" />
          </mxGeometry>
        </mxCell>
        <mxCell id="7DDmQKchOeRSoel_VwaO-32" value="" style="endArrow=classic;html=1;rounded=0;exitX=0;exitY=0.5;exitDx=0;exitDy=0;" edge="1" parent="1">
          <mxGeometry width="50" height="50" relative="1" as="geometry">
            <mxPoint x="520" y="419.71" as="sourcePoint" />
            <mxPoint x="490" y="419.71" as="targetPoint" />
          </mxGeometry>
        </mxCell>
        <mxCell id="7DDmQKchOeRSoel_VwaO-34" value="" style="endArrow=classic;html=1;rounded=0;exitX=0;exitY=0.5;exitDx=0;exitDy=0;" edge="1" parent="1">
          <mxGeometry width="50" height="50" relative="1" as="geometry">
            <mxPoint x="520" y="379.71" as="sourcePoint" />
            <mxPoint x="490" y="379.71" as="targetPoint" />
          </mxGeometry>
        </mxCell>
        <mxCell id="7DDmQKchOeRSoel_VwaO-35" value="" style="endArrow=classic;html=1;rounded=0;exitX=0;exitY=0.5;exitDx=0;exitDy=0;" edge="1" parent="1">
          <mxGeometry width="50" height="50" relative="1" as="geometry">
            <mxPoint x="520" y="464.71000000000004" as="sourcePoint" />
            <mxPoint x="490" y="464.71000000000004" as="targetPoint" />
          </mxGeometry>
        </mxCell>
        <mxCell id="7DDmQKchOeRSoel_VwaO-36" value="" style="labelPosition=right;align=left;strokeWidth=2;shape=mxgraph.mockup.markup.curlyBrace;html=1;shadow=0;dashed=0;strokeColor=#314354;direction=north;rotation=-180;fontSize=12;fillColor=#647687;fontColor=#ffffff;" vertex="1" parent="1">
          <mxGeometry x="590" y="200" width="20" height="80" as="geometry" />
        </mxCell>
        <mxCell id="7DDmQKchOeRSoel_VwaO-37" value="" style="labelPosition=right;align=left;strokeWidth=2;shape=mxgraph.mockup.markup.curlyBrace;html=1;shadow=0;dashed=0;strokeColor=#314354;direction=north;rotation=-180;fontSize=12;fillColor=#647687;fontColor=#ffffff;" vertex="1" parent="1">
          <mxGeometry x="590" y="360" width="20" height="115" as="geometry" />
        </mxCell>
        <mxCell id="7DDmQKchOeRSoel_VwaO-38" value="Variables&lt;br&gt;locales" style="text;html=1;align=center;verticalAlign=middle;resizable=0;points=[];autosize=1;strokeColor=none;fillColor=none;" vertex="1" parent="1">
          <mxGeometry x="610" y="220" width="70" height="40" as="geometry" />
        </mxCell>
        <mxCell id="7DDmQKchOeRSoel_VwaO-39" value="Arguments" style="text;html=1;align=center;verticalAlign=middle;resizable=0;points=[];autosize=1;strokeColor=none;fillColor=none;" vertex="1" parent="1">
          <mxGeometry x="610" y="400" width="80" height="30" as="geometry" />
        </mxCell>
      </root>
    </mxGraphModel>
  </diagram>
</mxfile>
